<svg xmlns="http://www.w3.org/2000/svg" width="100.9" height="41.9" viewBox="0 0 100.9 41.9">  <defs>    <style>      .cls-1 {        fill: #001670;      }    </style>  </defs>  <g id="Layer_2" data-name="Layer 2">    <g id="TEXT_AND_INFOS" data-name="TEXT AND INFOS">      <g>        <polygon class="cls-1" points="10.8 16.5 10.8 25.4 18.5 29.9 26.3 25.4 26.3 16.5 18.5 12 10.8 16.5"/>        <path class="cls-1" d="M21.5,3a2.9,2.9,0,0,0-3-3,3,3,0,0,0-3,3,3,3,0,0,0,2.1,2.8l.9,4.7,1-4.7A2.9,2.9,0,0,0,21.5,3Z"/>        <path class="cls-1" d="M15.5,38.9a3.1,3.1,0,0,0,3,3,3,3,0,0,0,3-3,2.9,2.9,0,0,0-2-2.8l-1-4.7-.9,4.7A3,3,0,0,0,15.5,38.9Z"/>        <path class="cls-1" d="M4.5,9.4A3,3,0,0,0,.4,10.5a3.1,3.1,0,0,0,1.1,4.1A3.2,3.2,0,0,0,5,14.2l4.5,1.5L5.9,12.5A2.8,2.8,0,0,0,4.5,9.4Z"/>        <path class="cls-1" d="M32.6,32.5a3,3,0,1,0,3-5.2,3,3,0,0,0-3.5.4l-4.5-1.5,3.5,3.2A3,3,0,0,0,32.6,32.5Z"/>        <path class="cls-1" d="M32.6,9.4a3,3,0,0,1,4.1,1.1,3.1,3.1,0,0,1-1.1,4.1,3.2,3.2,0,0,1-3.5-.4l-4.5,1.5,3.5-3.2A3,3,0,0,1,32.6,9.4Z"/>        <path class="cls-1" d="M4.5,32.5A3.1,3.1,0,0,1,.4,31.4a3.1,3.1,0,0,1,1.1-4.1,3,3,0,0,1,3.5.4l4.5-1.5L5.9,29.4A2.8,2.8,0,0,1,4.5,32.5Z"/>      </g>      <g>        <path class="cls-1" d="M59.5,26.6a15.3,15.3,0,0,1-4,.7,6.8,6.8,0,0,1-4.9-1.7,7,7,0,0,1-1.8-4.9c0-3.9,2.7-6.7,7-6.7a7.7,7.7,0,0,1,3.3.6L58.7,16a7,7,0,0,0-2.9-.6,4.8,4.8,0,0,0-5.2,5.2c0,3.3,2,5.3,5,5.3a4.7,4.7,0,0,0,2.2-.4V21.7H55.2V20.3h4.3Z"/>        <path class="cls-1" d="M62,13.4h1.7V27.1H62Z"/>        <path class="cls-1" d="M67.5,22.8A2.9,2.9,0,0,0,70.7,26a6,6,0,0,0,2.6-.5l.3,1.2a7.3,7.3,0,0,1-3.1.6,4.3,4.3,0,0,1-4.6-4.7c0-2.8,1.6-5,4.3-5s3.9,2.7,3.9,4.4a1.9,1.9,0,0,1-.1.8Zm5-1.2c0-1.1-.5-2.8-2.4-2.8a2.8,2.8,0,0,0-2.6,2.8Z"/>        <path class="cls-1" d="M76.2,20.3a20.1,20.1,0,0,0-.1-2.5h1.5v1.5h.1a3.4,3.4,0,0,1,3.1-1.7c1.2,0,3.2.8,3.2,4v5.5H82.5V21.8c0-1.6-.6-2.8-2.2-2.8A2.5,2.5,0,0,0,78,20.7a1.9,1.9,0,0,0-.1.8v5.6H76.2Z"/>        <path class="cls-1" d="M88.9,15.1v2.7h2.4v1.3H88.9v5c0,1.2.3,1.8,1.2,1.8h1v1.3l-1.5.2a2.1,2.1,0,0,1-1.8-.7,3.3,3.3,0,0,1-.7-2.4V19.1H85.8V17.8h1.4V15.6Z"/>        <path class="cls-1" d="M94,17.8l2.1,5.5c.2.6.4,1.4.6,1.9h0c.2-.5.4-1.2.6-1.9l1.8-5.5h1.8l-2.5,6.7c-1.2,3.2-2.1,4.8-3.2,5.8a5.3,5.3,0,0,1-2.1,1.1L92.7,30a4.9,4.9,0,0,0,1.5-.9,5.2,5.2,0,0,0,1.4-1.9.6.6,0,0,0,.1-.4.8.8,0,0,0-.1-.4l-3.4-8.6Z"/>      </g>    </g>  </g></svg>