<svg xmlns="http://www.w3.org/2000/svg" viewBox="0 0 153.85 153.86"><g id="Calque_2" data-name="Calque 2"><g id="filtre"><path d="M76.93,0a76.93,76.93,0,1,0,76.92,76.93A76.93,76.93,0,0,0,76.93,0Z" style="fill:#f4f4f4"/><path d="M79.66,119.21l-2.73-13-2.73,13a8.36,8.36,0,1,0,5.46,0Z" style="fill:#001670"/><path d="M37.65,44.6A8.36,8.36,0,1,0,39,58.15l12.63,4.14-9.9-8.87A8.37,8.37,0,0,0,37.65,44.6Z" style="fill:#001670"/><path d="M39,95.7a8.36,8.36,0,1,0,2.73,4.73l9.9-8.87Z" style="fill:#001670"/><path d="M74.2,34.65l2.73,13,2.73-13a8.36,8.36,0,1,0-5.46,0Z" style="fill:#001670"/><path d="M116.2,44.6a8.35,8.35,0,0,0-4,8.82l-9.9,8.87,12.63-4.14A8.36,8.36,0,1,0,116.2,44.6Z" style="fill:#001670"/><polygon points="55.2 64.38 55.2 89.47 76.93 102.02 98.65 89.47 98.65 64.38 76.93 51.84 55.2 64.38" style="fill:#001670"/><path d="M124.56,94.77a8.35,8.35,0,0,0-9.65.93l-12.63-4.14,9.9,8.87a8.36,8.36,0,1,0,12.38-5.66Z" style="fill:#001670"/></g></g></svg>