<svg xmlns="http://www.w3.org/2000/svg" xmlns:xlink="http://www.w3.org/1999/xlink" viewBox="0 0 653.08 4665.65"><defs><linearGradient id="Dégradé_sans_nom_688" x1="542.13" y1="1330.52" x2="35.31" y2="981.37" gradientUnits="userSpaceOnUse"><stop offset="0" stop-color="#fff" stop-opacity="0"/><stop offset="0.09" stop-color="#fbfcff" stop-opacity="0.03"/><stop offset="0.22" stop-color="#f1f3ff" stop-opacity="0.11"/><stop offset="0.37" stop-color="#dfe4ff" stop-opacity="0.23"/><stop offset="0.55" stop-color="#c7d0ff" stop-opacity="0.41"/><stop offset="0.74" stop-color="#a9b6ff" stop-opacity="0.64"/><stop offset="0.94" stop-color="#8496ff" stop-opacity="0.91"/><stop offset="1" stop-color="#788cff"/></linearGradient><linearGradient id="Dégradé_sans_nom_688-2" x1="1111.18" y1="2254.22" x2="225.63" y2="1644.17" xlink:href="#Dégradé_sans_nom_688"/><linearGradient id="Dégradé_sans_nom_688-3" x1="808.22" y1="3448.11" x2="201.18" y2="3029.93" xlink:href="#Dégradé_sans_nom_688"/><linearGradient id="Dégradé_sans_nom_693" x1="741.62" y1="121.56" x2="420.3" y2="344.99" gradientUnits="userSpaceOnUse"><stop offset="0.22" stop-color="#788cff" stop-opacity="0"/><stop offset="1" stop-color="#788cff"/></linearGradient><linearGradient id="Dégradé_sans_nom_695" x1="326.54" y1="773.08" x2="326.54" y2="-64.72" gradientUnits="userSpaceOnUse"><stop offset="0" stop-color="#0016ff" stop-opacity="0"/><stop offset="0.34" stop-color="#151dcb" stop-opacity="0.42"/><stop offset="0.63" stop-color="#2423a4" stop-opacity="0.74"/><stop offset="0.86" stop-color="#2e268c" stop-opacity="0.93"/><stop offset="1" stop-color="#312783"/></linearGradient><linearGradient id="Dégradé_sans_nom_684" x1="2942.42" y1="800.51" x2="3094.06" y2="704.74" gradientTransform="translate(-2400.72 949.64) rotate(-30)" gradientUnits="userSpaceOnUse"><stop offset="0" stop-color="#ebedf4" stop-opacity="0"/><stop offset="1" stop-color="#ebedf4"/></linearGradient><linearGradient id="Dégradé_sans_nom_684-2" x1="1062.51" y1="4066.09" x2="1214.15" y2="3970.32" xlink:href="#Dégradé_sans_nom_684"/><linearGradient id="Dégradé_sans_nom_684-3" x1="1734.9" y1="1945.79" x2="2121.62" y2="1701.54" xlink:href="#Dégradé_sans_nom_684"/><linearGradient id="Dégradé_sans_nom_684-4" x1="508.75" y1="2242.73" x2="996.29" y2="2785.21" gradientTransform="matrix(1, 0, 0, 1, 0, 0)" xlink:href="#Dégradé_sans_nom_684"/><linearGradient id="Dégradé_sans_nom_684-5" x1="238.52" y1="3494.83" x2="-197.11" y2="4950.49" gradientTransform="matrix(1, 0, 0, 1, 0, 0)" xlink:href="#Dégradé_sans_nom_684"/><linearGradient id="Dégradé_sans_nom_684-6" x1="-1065.81" y1="-6130.43" x2="-1001.9" y2="-6159.99" gradientTransform="translate(-5052.42 3660.3) rotate(67.26)" xlink:href="#Dégradé_sans_nom_684"/><linearGradient id="Dégradé_sans_nom_684-7" x1="621.12" y1="2764.24" x2="536.07" y2="2792.04" gradientTransform="matrix(1.68, 0, 0, 1.68, -408.14, -3811.74)" xlink:href="#Dégradé_sans_nom_684"/><linearGradient id="Dégradé_sans_nom_684-8" x1="141.76" y1="977.98" x2="77.27" y2="929.62" gradientTransform="matrix(1, 0, 0, 1, 0, 0)" xlink:href="#Dégradé_sans_nom_684"/><linearGradient id="Dégradé_sans_nom_684-9" x1="112.01" y1="260.86" x2="87.2" y2="242.72" gradientTransform="matrix(1, 0, 0, 1, 0, 0)" xlink:href="#Dégradé_sans_nom_684"/><radialGradient id="Dégradé_sans_nom_671" cx="433.25" cy="-12586.25" r="3763.42" gradientTransform="translate(241.87 3841.52) scale(0.26 0.26)" gradientUnits="userSpaceOnUse"><stop offset="0.49" stop-color="#fff" stop-opacity="0"/><stop offset="1" stop-color="#788cff"/></radialGradient><radialGradient id="Dégradé_sans_nom_664" cx="391.34" cy="-12556.25" r="2285.13" gradientTransform="translate(241.87 3841.52) scale(0.26 0.26)" gradientUnits="userSpaceOnUse"><stop offset="0" stop-color="#fff" stop-opacity="0"/><stop offset="1" stop-color="#788cff"/></radialGradient><radialGradient id="Dégradé_sans_nom_664-2" cx="433.25" cy="-12203.66" r="3195.2" xlink:href="#Dégradé_sans_nom_664"/><radialGradient id="Dégradé_sans_nom_670" cx="34.82" cy="-12844.32" r="3212.34" gradientTransform="translate(241.87 3841.52) scale(0.26 0.26)" gradientUnits="userSpaceOnUse"><stop offset="0.26" stop-color="#fff" stop-opacity="0"/><stop offset="1" stop-color="#788cff"/></radialGradient><radialGradient id="Dégradé_sans_nom_664-5" cx="391.34" cy="-12323.94" r="1940.11" xlink:href="#Dégradé_sans_nom_664"/><radialGradient id="Dégradé_sans_nom_674" cx="498.55" cy="-12262.1" r="3195.2" gradientTransform="translate(241.87 3841.52) scale(0.26 0.26)" gradientUnits="userSpaceOnUse"><stop offset="0.43" stop-color="#fff" stop-opacity="0"/><stop offset="1" stop-color="#788cff"/></radialGradient><radialGradient id="Dégradé_sans_nom_664-7" cx="-23.35" cy="-12556.25" r="1950.52" xlink:href="#Dégradé_sans_nom_664"/><radialGradient id="Dégradé_sans_nom_668" cx="-998.55" cy="149.77" r="1959.05" gradientUnits="userSpaceOnUse"><stop offset="0.56" stop-color="#fff" stop-opacity="0"/><stop offset="1" stop-color="#788cff"/></radialGradient><radialGradient id="Dégradé_sans_nom_671-2" cx="433.25" cy="-10245.51" r="3763.42" xlink:href="#Dégradé_sans_nom_671"/><radialGradient id="Dégradé_sans_nom_664-12" cx="391.34" cy="-10215.51" r="2285.13" xlink:href="#Dégradé_sans_nom_664"/><radialGradient id="Dégradé_sans_nom_664-13" cx="433.25" cy="-9862.92" r="3195.2" xlink:href="#Dégradé_sans_nom_664"/><radialGradient id="Dégradé_sans_nom_670-2" cx="34.82" cy="-10503.59" r="3212.34" xlink:href="#Dégradé_sans_nom_670"/><radialGradient id="Dégradé_sans_nom_664-16" cx="391.34" cy="-9983.21" r="1940.11" xlink:href="#Dégradé_sans_nom_664"/><radialGradient id="Dégradé_sans_nom_674-2" cx="498.55" cy="-9921.36" r="3195.2" xlink:href="#Dégradé_sans_nom_674"/><radialGradient id="Dégradé_sans_nom_664-18" cx="-23.35" cy="-10215.51" r="1950.52" xlink:href="#Dégradé_sans_nom_664"/><radialGradient id="Dégradé_sans_nom_668-2" cx="-339.67" cy="886.23" r="1059.03" xlink:href="#Dégradé_sans_nom_668"/><radialGradient id="Dégradé_sans_nom_671-3" cx="1139.69" cy="1364.21" r="881.31" gradientTransform="matrix(1, 0, 0, 1, 0, 0)" xlink:href="#Dégradé_sans_nom_671"/><radialGradient id="Dégradé_sans_nom_664-23" cx="391.34" cy="-7307.53" r="2285.13" xlink:href="#Dégradé_sans_nom_664"/><radialGradient id="Dégradé_sans_nom_664-24" cx="433.25" cy="-6954.93" r="3195.2" xlink:href="#Dégradé_sans_nom_664"/><radialGradient id="Dégradé_sans_nom_670-3" cx="34.82" cy="-7595.6" r="3212.34" xlink:href="#Dégradé_sans_nom_670"/><radialGradient id="Dégradé_sans_nom_664-27" cx="391.34" cy="-7075.22" r="1940.11" xlink:href="#Dégradé_sans_nom_664"/><radialGradient id="Dégradé_sans_nom_674-3" cx="498.55" cy="-7013.37" r="3195.2" xlink:href="#Dégradé_sans_nom_674"/><radialGradient id="Dégradé_sans_nom_664-29" cx="-23.35" cy="-7307.53" r="1950.52" xlink:href="#Dégradé_sans_nom_664"/><radialGradient id="Dégradé_sans_nom_668-3" cx="-339.67" cy="1640.32" r="1059.03" xlink:href="#Dégradé_sans_nom_668"/><radialGradient id="Dégradé_sans_nom_671-4" cx="433.25" cy="-4429.54" r="3763.42" xlink:href="#Dégradé_sans_nom_671"/><radialGradient id="Dégradé_sans_nom_664-34" cx="391.34" cy="-4399.54" r="2285.13" xlink:href="#Dégradé_sans_nom_664"/><radialGradient id="Dégradé_sans_nom_664-35" cx="433.25" cy="-4046.95" r="3195.2" xlink:href="#Dégradé_sans_nom_664"/><radialGradient id="Dégradé_sans_nom_670-4" cx="34.82" cy="-4687.61" r="3212.34" xlink:href="#Dégradé_sans_nom_670"/><radialGradient id="Dégradé_sans_nom_664-38" cx="391.34" cy="-4167.23" r="1940.11" xlink:href="#Dégradé_sans_nom_664"/><radialGradient id="Dégradé_sans_nom_674-4" cx="498.55" cy="-4105.38" r="3195.2" xlink:href="#Dégradé_sans_nom_674"/><radialGradient id="Dégradé_sans_nom_664-40" cx="-23.35" cy="-4399.54" r="1950.52" xlink:href="#Dégradé_sans_nom_664"/><radialGradient id="Dégradé_sans_nom_668-4" cx="1077.83" cy="2828.72" r="1320.56" xlink:href="#Dégradé_sans_nom_668"/><radialGradient id="Dégradé_sans_nom_671-5" cx="-1.59" cy="3814.37" r="1258.64" gradientTransform="matrix(1, 0, 0, 1, 0, 0)" xlink:href="#Dégradé_sans_nom_671"/><radialGradient id="Dégradé_sans_nom_664-45" cx="391.34" cy="-1491.55" r="2285.13" xlink:href="#Dégradé_sans_nom_664"/><radialGradient id="Dégradé_sans_nom_664-46" cx="433.25" cy="-1138.96" r="3195.2" xlink:href="#Dégradé_sans_nom_664"/><radialGradient id="Dégradé_sans_nom_670-5" cx="34.82" cy="-1779.63" r="3212.34" xlink:href="#Dégradé_sans_nom_670"/><radialGradient id="Dégradé_sans_nom_664-49" cx="391.34" cy="-1259.24" r="1940.11" xlink:href="#Dégradé_sans_nom_664"/><radialGradient id="Dégradé_sans_nom_674-5" cx="498.55" cy="-1197.4" r="3195.2" xlink:href="#Dégradé_sans_nom_674"/><radialGradient id="Dégradé_sans_nom_664-51" cx="-23.35" cy="-1491.55" r="1950.52" xlink:href="#Dégradé_sans_nom_664"/><radialGradient id="Dégradé_sans_nom_668-5" cx="-339.67" cy="3148.52" r="1059.03" xlink:href="#Dégradé_sans_nom_668"/><radialGradient id="Dégradé_sans_nom_671-6" cx="-1.59" cy="4568.47" r="1258.64" gradientTransform="matrix(1, 0, 0, 1, 0, 0)" xlink:href="#Dégradé_sans_nom_671"/><radialGradient id="Dégradé_sans_nom_664-56" cx="391.34" cy="1416.44" r="2285.13" xlink:href="#Dégradé_sans_nom_664"/><radialGradient id="Dégradé_sans_nom_664-57" cx="433.25" cy="1769.03" r="3195.2" xlink:href="#Dégradé_sans_nom_664"/><radialGradient id="Dégradé_sans_nom_670-6" cx="34.82" cy="1128.36" r="3212.34" xlink:href="#Dégradé_sans_nom_670"/><radialGradient id="Dégradé_sans_nom_664-60" cx="391.34" cy="1648.75" r="1940.11" xlink:href="#Dégradé_sans_nom_664"/><radialGradient id="Dégradé_sans_nom_674-6" cx="498.55" cy="1710.59" r="3195.2" xlink:href="#Dégradé_sans_nom_674"/><radialGradient id="Dégradé_sans_nom_664-62" cx="-23.35" cy="1416.44" r="1950.52" xlink:href="#Dégradé_sans_nom_664"/><radialGradient id="Dégradé_sans_nom_668-6" cx="-339.67" cy="3902.61" r="1059.03" xlink:href="#Dégradé_sans_nom_668"/></defs><g id="Calque_2" data-name="Calque 2"><g id="background"><rect x="0.02" width="653.07" height="4665.65" style="fill:#788cff"/><polygon points="0.02 972.67 0.02 1134.29 139.98 1215.1 279.95 1134.29 279.95 972.67 139.98 891.87 0.02 972.67" style="fill:url(#Dégradé_sans_nom_688)"/><polygon points="163.97 1628.97 163.97 1911.36 408.53 2052.56 653.08 1911.36 653.08 1628.97 408.53 1487.78 163.97 1628.97" style="fill:url(#Dégradé_sans_nom_688-2)"/><polygon points="158.91 3019.51 158.91 3213.08 326.55 3309.87 494.19 3213.08 494.19 3019.51 326.55 2922.72 158.91 3019.51" style="fill:url(#Dégradé_sans_nom_688-3)"/><polygon points="428.87 196.35 428.87 325.8 540.98 390.52 653.08 325.8 653.08 196.35 540.98 131.63 428.87 196.35" style="fill:url(#Dégradé_sans_nom_693)"/><rect width="653.08" height="919.06" style="fill:url(#Dégradé_sans_nom_695)"/><polygon points="537.18 106.21 537.18 146.06 571.69 165.99 606.21 146.06 606.21 106.21 571.69 86.28 537.18 106.21" style="fill:url(#Dégradé_sans_nom_684)"/><polygon points="541.91 3874.23 541.91 3914.09 576.43 3934.02 610.95 3914.09 610.95 3874.23 576.43 3854.3 541.91 3874.23" style="fill:url(#Dégradé_sans_nom_684-2)"/><polygon points="47.68 1600.28 47.68 1701.92 135.7 1752.74 223.73 1701.92 223.73 1600.28 135.7 1549.46 47.68 1600.28" style="fill:url(#Dégradé_sans_nom_684-3)"/><polygon points="539.48 2307.33 539.48 2372.92 596.28 2405.72 653.08 2372.92 653.08 2307.33 596.28 2274.54 539.48 2307.33" style="fill:url(#Dégradé_sans_nom_684-4)"/><polygon points="0.02 3762.59 0.02 3918.52 135.06 3996.49 270.1 3918.52 270.1 3762.59 135.06 3684.62 0.02 3762.59" style="fill:url(#Dégradé_sans_nom_684-5)"/><polygon points="236.51 318.71 212.98 315.72 198.62 334.59 207.78 356.47 231.31 359.47 245.68 340.59 236.51 318.71" style="fill:url(#Dégradé_sans_nom_684-6)"/><polygon points="588.48 809.84 559.2 818.68 552.21 848.45 574.5 869.39 603.78 860.55 610.77 830.78 588.48 809.84" style="fill:url(#Dégradé_sans_nom_684-7)"/><polygon points="135.69 953.02 120.45 943 104.15 951.2 103.1 969.41 118.35 979.42 134.64 971.23 135.69 953.02" style="fill:url(#Dégradé_sans_nom_684-8)"/><polygon points="102.69 247.69 98.42 239.48 89.17 239.07 84.2 246.87 88.47 255.08 97.71 255.49 102.69 247.69" style="fill:url(#Dégradé_sans_nom_684-9)"/><polygon points="653.08 408.94 326.55 220.42 326.55 597.47 653.08 408.94" style="fill:url(#Dégradé_sans_nom_671)"/><polygon points="326.55 597.47 524.82 711.94 524.82 483 326.55 597.47" style="fill:url(#Dégradé_sans_nom_664)"/><polygon points="326.55 597.47 653.08 785.99 653.08 408.94 326.55 597.47" style="fill:url(#Dégradé_sans_nom_664-2)"/><polygon points="326.55 368.53 128.28 483 326.55 597.47 326.55 368.53" style="fill:url(#Dégradé_sans_nom_664)"/><polygon points="326.55 220.42 0.02 408.94 326.55 597.47 326.55 220.42" style="fill:url(#Dégradé_sans_nom_670)"/><polygon points="326.55 826.41 524.82 711.94 326.55 597.47 326.55 826.41" style="fill:url(#Dégradé_sans_nom_664)"/><polygon points="326.55 826.41 524.82 711.94 326.55 597.47 326.55 826.41" style="fill:url(#Dégradé_sans_nom_664-5)"/><polygon points="326.55 974.52 653.08 785.99 326.55 597.47 326.55 974.52" style="fill:url(#Dégradé_sans_nom_674)"/><polygon points="128.28 483 128.28 711.94 326.55 597.47 128.28 483" style="fill:url(#Dégradé_sans_nom_664)"/><polygon points="128.28 483 128.28 711.94 326.55 597.47 128.28 483" style="fill:url(#Dégradé_sans_nom_664-7)"/><polygon points="0.02 408.94 0.02 785.99 326.55 597.47 0.02 408.94" style="fill:url(#Dégradé_sans_nom_668)"/><polygon points="128.28 711.94 326.55 826.41 326.55 597.47 128.28 711.94" style="fill:url(#Dégradé_sans_nom_664)"/><polygon points="128.28 711.94 326.55 826.41 326.55 597.47 128.28 711.94" style="fill:url(#Dégradé_sans_nom_664-5)"/><polygon points="128.28 711.94 326.55 826.41 326.55 597.47 128.28 711.94" style="fill:url(#Dégradé_sans_nom_664-7)"/><polygon points="0.02 785.99 326.55 974.52 326.55 597.47 0.02 785.99" style="fill:url(#Dégradé_sans_nom_664-2)"/><polygon points="653.08 1015.94 326.55 827.42 326.55 1204.47 653.08 1015.94" style="fill:url(#Dégradé_sans_nom_671-2)"/><polygon points="326.55 1204.47 524.82 1318.94 524.82 1090 326.55 1204.47" style="fill:url(#Dégradé_sans_nom_664-12)"/><polygon points="326.55 1204.47 653.08 1392.99 653.08 1015.94 326.55 1204.47" style="fill:url(#Dégradé_sans_nom_664-13)"/><polygon points="326.55 975.52 128.28 1090 326.55 1204.47 326.55 975.52" style="fill:url(#Dégradé_sans_nom_664-12)"/><polygon points="326.55 827.42 0.02 1015.94 326.55 1204.47 326.55 827.42" style="fill:url(#Dégradé_sans_nom_670-2)"/><polygon points="326.55 1433.41 524.82 1318.94 326.55 1204.47 326.55 1433.41" style="fill:url(#Dégradé_sans_nom_664-12)"/><polygon points="326.55 1433.41 524.82 1318.94 326.55 1204.47 326.55 1433.41" style="fill:url(#Dégradé_sans_nom_664-16)"/><polygon points="326.55 1581.52 653.08 1392.99 326.55 1204.47 326.55 1581.52" style="fill:url(#Dégradé_sans_nom_674-2)"/><polygon points="128.28 1090 128.28 1318.94 326.55 1204.47 128.28 1090" style="fill:url(#Dégradé_sans_nom_664-12)"/><polygon points="128.28 1090 128.28 1318.94 326.55 1204.47 128.28 1090" style="fill:url(#Dégradé_sans_nom_664-18)"/><polygon points="0.02 1015.94 0.02 1392.99 326.55 1204.47 0.02 1015.94" style="fill:url(#Dégradé_sans_nom_668-2)"/><polygon points="128.28 1318.94 326.55 1433.41 326.55 1204.47 128.28 1318.94" style="fill:url(#Dégradé_sans_nom_664-12)"/><polygon points="128.28 1318.94 326.55 1433.41 326.55 1204.47 128.28 1318.94" style="fill:url(#Dégradé_sans_nom_664-16)"/><polygon points="128.28 1318.94 326.55 1433.41 326.55 1204.47 128.28 1318.94" style="fill:url(#Dégradé_sans_nom_664-18)"/><polygon points="0.02 1392.99 326.55 1581.52 326.55 1204.47 0.02 1392.99" style="fill:url(#Dégradé_sans_nom_664-13)"/><polygon points="653.08 1770.04 326.55 1581.52 326.55 1958.56 653.08 1770.04" style="fill:url(#Dégradé_sans_nom_671-3)"/><polygon points="326.55 1958.56 524.82 2073.03 524.82 1844.09 326.55 1958.56" style="fill:url(#Dégradé_sans_nom_664-23)"/><polygon points="326.55 1958.56 653.08 2147.09 653.08 1770.04 326.55 1958.56" style="fill:url(#Dégradé_sans_nom_664-24)"/><polygon points="326.55 1729.62 128.28 1844.09 326.55 1958.56 326.55 1729.62" style="fill:url(#Dégradé_sans_nom_664-23)"/><polygon points="326.55 1581.52 0.02 1770.04 326.55 1958.56 326.55 1581.52" style="fill:url(#Dégradé_sans_nom_670-3)"/><polygon points="326.55 2187.51 524.82 2073.03 326.55 1958.56 326.55 2187.51" style="fill:url(#Dégradé_sans_nom_664-23)"/><polygon points="326.55 2187.51 524.82 2073.03 326.55 1958.56 326.55 2187.51" style="fill:url(#Dégradé_sans_nom_664-27)"/><polygon points="326.55 2335.61 653.08 2147.09 326.55 1958.56 326.55 2335.61" style="fill:url(#Dégradé_sans_nom_674-3)"/><polygon points="128.28 1844.09 128.28 2073.03 326.55 1958.56 128.28 1844.09" style="fill:url(#Dégradé_sans_nom_664-23)"/><polygon points="128.28 1844.09 128.28 2073.03 326.55 1958.56 128.28 1844.09" style="fill:url(#Dégradé_sans_nom_664-29)"/><polygon points="0.02 1770.04 0.02 2147.09 326.55 1958.56 0.02 1770.04" style="fill:url(#Dégradé_sans_nom_668-3)"/><polygon points="128.28 2073.03 326.55 2187.51 326.55 1958.56 128.28 2073.03" style="fill:url(#Dégradé_sans_nom_664-23)"/><polygon points="128.28 2073.03 326.55 2187.51 326.55 1958.56 128.28 2073.03" style="fill:url(#Dégradé_sans_nom_664-27)"/><polygon points="128.28 2073.03 326.55 2187.51 326.55 1958.56 128.28 2073.03" style="fill:url(#Dégradé_sans_nom_664-29)"/><polygon points="0.02 2147.09 326.55 2335.61 326.55 1958.56 0.02 2147.09" style="fill:url(#Dégradé_sans_nom_664-24)"/><polygon points="653.08 2524.14 326.55 2335.61 326.55 2712.66 653.08 2524.14" style="fill:url(#Dégradé_sans_nom_671-4)"/><polygon points="326.55 2712.66 524.82 2827.13 524.82 2598.19 326.55 2712.66" style="fill:url(#Dégradé_sans_nom_664-34)"/><polygon points="326.55 2712.66 653.08 2901.19 653.08 2524.14 326.55 2712.66" style="fill:url(#Dégradé_sans_nom_664-35)"/><polygon points="326.55 2483.72 128.28 2598.19 326.55 2712.66 326.55 2483.72" style="fill:url(#Dégradé_sans_nom_664-34)"/><polygon points="326.55 2335.61 0.02 2524.14 326.55 2712.66 326.55 2335.61" style="fill:url(#Dégradé_sans_nom_670-4)"/><polygon points="326.55 2941.6 524.82 2827.13 326.55 2712.66 326.55 2941.6" style="fill:url(#Dégradé_sans_nom_664-34)"/><polygon points="326.55 2941.6 524.82 2827.13 326.55 2712.66 326.55 2941.6" style="fill:url(#Dégradé_sans_nom_664-38)"/><polygon points="326.55 3089.71 653.08 2901.19 326.55 2712.66 326.55 3089.71" style="fill:url(#Dégradé_sans_nom_674-4)"/><polygon points="128.28 2598.19 128.28 2827.13 326.55 2712.66 128.28 2598.19" style="fill:url(#Dégradé_sans_nom_664-34)"/><polygon points="128.28 2598.19 128.28 2827.13 326.55 2712.66 128.28 2598.19" style="fill:url(#Dégradé_sans_nom_664-40)"/><polygon points="0.02 2524.14 0.02 2901.19 326.55 2712.66 0.02 2524.14" style="fill:url(#Dégradé_sans_nom_668-4)"/><polygon points="128.28 2827.13 326.55 2941.6 326.55 2712.66 128.28 2827.13" style="fill:url(#Dégradé_sans_nom_664-34)"/><polygon points="128.28 2827.13 326.55 2941.6 326.55 2712.66 128.28 2827.13" style="fill:url(#Dégradé_sans_nom_664-38)"/><polygon points="128.28 2827.13 326.55 2941.6 326.55 2712.66 128.28 2827.13" style="fill:url(#Dégradé_sans_nom_664-40)"/><polygon points="0.02 2901.19 326.55 3089.71 326.55 2712.66 0.02 2901.19" style="fill:url(#Dégradé_sans_nom_664-35)"/><polygon points="653.08 3278.24 326.55 3089.71 326.55 3466.76 653.08 3278.24" style="fill:url(#Dégradé_sans_nom_671-5)"/><polygon points="326.55 3466.76 524.82 3581.23 524.82 3352.29 326.55 3466.76" style="fill:url(#Dégradé_sans_nom_664-45)"/><polygon points="326.55 3466.76 653.08 3655.28 653.08 3278.24 326.55 3466.76" style="fill:url(#Dégradé_sans_nom_664-46)"/><polygon points="326.55 3237.82 128.28 3352.29 326.55 3466.76 326.55 3237.82" style="fill:url(#Dégradé_sans_nom_664-45)"/><polygon points="326.55 3089.71 0.02 3278.24 326.55 3466.76 326.55 3089.71" style="fill:url(#Dégradé_sans_nom_670-5)"/><polygon points="326.55 3695.7 524.82 3581.23 326.55 3466.76 326.55 3695.7" style="fill:url(#Dégradé_sans_nom_664-45)"/><polygon points="326.55 3695.7 524.82 3581.23 326.55 3466.76 326.55 3695.7" style="fill:url(#Dégradé_sans_nom_664-49)"/><polygon points="326.55 3843.81 653.08 3655.28 326.55 3466.76 326.55 3843.81" style="fill:url(#Dégradé_sans_nom_674-5)"/><polygon points="128.28 3352.29 128.28 3581.23 326.55 3466.76 128.28 3352.29" style="fill:url(#Dégradé_sans_nom_664-45)"/><polygon points="128.28 3352.29 128.28 3581.23 326.55 3466.76 128.28 3352.29" style="fill:url(#Dégradé_sans_nom_664-51)"/><polygon points="0.02 3278.24 0.02 3655.28 326.55 3466.76 0.02 3278.24" style="fill:url(#Dégradé_sans_nom_668-5)"/><polygon points="128.28 3581.23 326.55 3695.7 326.55 3466.76 128.28 3581.23" style="fill:url(#Dégradé_sans_nom_664-45)"/><polygon points="128.28 3581.23 326.55 3695.7 326.55 3466.76 128.28 3581.23" style="fill:url(#Dégradé_sans_nom_664-49)"/><polygon points="128.28 3581.23 326.55 3695.7 326.55 3466.76 128.28 3581.23" style="fill:url(#Dégradé_sans_nom_664-51)"/><polygon points="0.02 3655.28 326.55 3843.81 326.55 3466.76 0.02 3655.28" style="fill:url(#Dégradé_sans_nom_664-46)"/><polygon points="653.08 4032.33 326.55 3843.81 326.55 4220.86 653.08 4032.33" style="fill:url(#Dégradé_sans_nom_671-6)"/><polygon points="326.55 4220.86 524.82 4335.33 524.82 4106.39 326.55 4220.86" style="fill:url(#Dégradé_sans_nom_664-56)"/><polygon points="326.55 4220.86 653.08 4409.38 653.08 4032.33 326.55 4220.86" style="fill:url(#Dégradé_sans_nom_664-57)"/><polygon points="326.55 3991.91 128.28 4106.39 326.55 4220.86 326.55 3991.91" style="fill:url(#Dégradé_sans_nom_664-56)"/><polygon points="326.55 3843.81 0.02 4032.33 326.55 4220.86 326.55 3843.81" style="fill:url(#Dégradé_sans_nom_670-6)"/><polygon points="326.55 4449.8 524.82 4335.33 326.55 4220.86 326.55 4449.8" style="fill:url(#Dégradé_sans_nom_664-56)"/><polygon points="326.55 4449.8 524.82 4335.33 326.55 4220.86 326.55 4449.8" style="fill:url(#Dégradé_sans_nom_664-60)"/><polygon points="326.55 4597.9 653.08 4409.38 326.55 4220.86 326.55 4597.9" style="fill:url(#Dégradé_sans_nom_674-6)"/><polygon points="128.28 4106.39 128.28 4335.33 326.55 4220.86 128.28 4106.39" style="fill:url(#Dégradé_sans_nom_664-56)"/><polygon points="128.28 4106.39 128.28 4335.33 326.55 4220.86 128.28 4106.39" style="fill:url(#Dégradé_sans_nom_664-62)"/><polygon points="0.02 4032.33 0.02 4409.38 326.55 4220.86 0.02 4032.33" style="fill:url(#Dégradé_sans_nom_668-6)"/><polygon points="128.28 4335.33 326.55 4449.8 326.55 4220.86 128.28 4335.33" style="fill:url(#Dégradé_sans_nom_664-56)"/><polygon points="128.28 4335.33 326.55 4449.8 326.55 4220.86 128.28 4335.33" style="fill:url(#Dégradé_sans_nom_664-60)"/><polygon points="128.28 4335.33 326.55 4449.8 326.55 4220.86 128.28 4335.33" style="fill:url(#Dégradé_sans_nom_664-62)"/><polygon points="0.02 4409.38 326.55 4597.9 326.55 4220.86 0.02 4409.38" style="fill:url(#Dégradé_sans_nom_664-57)"/></g></g></svg>