<svg xmlns="http://www.w3.org/2000/svg" viewBox="0 0 28.38 28.38"><g id="Calque_2" data-name="Calque 2"><g id="TEXT_AND_INFOS" data-name="TEXT AND INFOS"><path d="M24.16,4.09A14.09,14.09,0,0,0,14.19,0H14.1A14.19,14.19,0,0,0,0,14.28a14.19,14.19,0,0,0,14.19,14.1h.09A14.19,14.19,0,0,0,28.38,14.1,14.09,14.09,0,0,0,24.16,4.09ZM10,16.25,13,18v3.29l-3-1.71Zm8.06-4.12-2.71-1.57V7.27l2.71,1.57Zm-2.71,1.19,1.51.87-1.51.88ZM13,15.21l-1.76-1,1.76-1Zm2.39,2.61,2.71-1.57v3.29l-2.71,1.57ZM13,10.42l-3,1.71V8.84l3-1.71Zm9.61,12.06a11.66,11.66,0,0,1-7.22,3.45V23.86l5.1-2.94V7.46l-6.42-3.7L7.63,7.46V20.92L13,24v1.93a11.8,11.8,0,0,1-7.19-20,11.71,11.71,0,0,1,8.33-3.51h.07a11.79,11.79,0,0,1,8.4,20.09Z" style="fill:#989fac"/></g></g></svg>