<svg xmlns="http://www.w3.org/2000/svg" xmlns:xlink="http://www.w3.org/1999/xlink" viewBox="0 0 470.81 480.44"><defs><linearGradient id="Dégradé_sans_nom_756" y1="240.22" x2="470.81" y2="240.22" gradientUnits="userSpaceOnUse"><stop offset="0" stop-color="#312783"/><stop offset="1" stop-color="#312783"/></linearGradient><radialGradient id="Dégradé_sans_nom_664" cx="222.6" cy="571.86" r="42.68" gradientTransform="translate(-0.03 -86.18) scale(0.99 0.57)" gradientUnits="userSpaceOnUse"><stop offset="0" stop-color="#fff" stop-opacity="0"/><stop offset="1" stop-color="#788cff"/></radialGradient></defs><g id="Calque_2" data-name="Calque 2"><g id="TEXT_AND_INFOS" data-name="TEXT AND INFOS"><rect width="470.81" height="480.44" rx="26.43" style="fill:url(#Dégradé_sans_nom_756)"/><rect x="26.43" y="138.98" width="417.86" height="97.77" rx="26.43" style="fill:#1c1951"/><path d="M470.81,26.43A26.43,26.43,0,0,0,444.38,0H26.43A26.43,26.43,0,0,0,0,26.43v86.31H470.81Z" style="fill:#788cff"/><path d="M52.86,401.2a26.43,26.43,0,0,0-26.43,26.43h0a26.43,26.43,0,0,0,26.43,26.43h365a26.43,26.43,0,0,0,26.43-26.43h0a26.43,26.43,0,0,0-26.43-26.43Z" style="fill:#f3ba2f"/><polygon points="244.52 251.85 224.69 251.85 234.6 261.77 244.52 251.85" style="fill:url(#Dégradé_sans_nom_664)"/><rect x="26.43" y="276.87" width="417.86" height="97.77" rx="26.43" style="fill:#1c1951"/></g></g></svg>