<svg xmlns="http://www.w3.org/2000/svg" xmlns:xlink="http://www.w3.org/1999/xlink" viewBox="0 0 470.81 480.44"><defs><linearGradient id="Dégradé_sans_nom_756" y1="240.22" x2="470.81" y2="240.22" gradientUnits="userSpaceOnUse"><stop offset="0" stop-color="#312783"/><stop offset="1" stop-color="#312783"/></linearGradient></defs><g id="Calque_2" data-name="Calque 2"><g id="TEXT_AND_INFOS" data-name="TEXT AND INFOS"><rect width="470.81" height="480.44" rx="26.43" style="fill:url(#Dégradé_sans_nom_756)"/><path d="M417.87,139h-365a26.43,26.43,0,0,0-26.43,26.43v182.8a26.44,26.44,0,0,0,26.43,26.43h365a26.44,26.44,0,0,0,26.43-26.43V165.41A26.43,26.43,0,0,0,417.87,139Z" style="fill:#1c1951"/><path d="M470.81,26.43A26.43,26.43,0,0,0,444.38,0H26.43A26.43,26.43,0,0,0,0,26.43v86.31H470.81Z" style="fill:#788cff"/><path d="M52.86,401.2a26.43,26.43,0,0,0-26.43,26.43h0a26.43,26.43,0,0,0,26.43,26.43h365a26.43,26.43,0,0,0,26.43-26.43h0a26.43,26.43,0,0,0-26.43-26.43Z" style="fill:#f3ba2f"/></g></g></svg>