<svg xmlns="http://www.w3.org/2000/svg" viewBox="0 0 28.38 28.38"><g id="Calque_2" data-name="Calque 2"><g id="TEXT_AND_INFOS" data-name="TEXT AND INFOS"><polygon points="11.74 7.71 13.33 6.78 13.32 4.93 11.71 4.02 10.12 4.95 10.13 6.8 11.74 7.71" style="fill:#989fac"/><path d="M14.19,0H14.1A14.19,14.19,0,0,0,0,14.28a14.19,14.19,0,0,0,14.19,14.1h.09A14.19,14.19,0,0,0,28.38,14.1h0A14.21,14.21,0,0,0,14.19,0Zm8.4,22.48A11.7,11.7,0,0,1,14.27,26,12.64,12.64,0,0,1,11,25.54l1.49-.88V22.32l-2-1.16-2,1.19v2.13A11.34,11.34,0,0,1,5.9,22.59a11.69,11.69,0,0,1-3.51-8.32A11.84,11.84,0,0,1,2.83,11l2.79,1.59L9,10.64l0-3.87L6.4,5.34a11.65,11.65,0,0,1,7.72-2.95h.07a11.7,11.7,0,0,1,4,.72l-1.73,1,0,3.13,2.71,1.54,2.7-1.58V5.28a11.76,11.76,0,0,1,.68,17.2Z" style="fill:#989fac"/><polygon points="18.68 18.02 16.06 19.56 16.08 22.61 18.72 24.11 21.35 22.57 21.33 19.53 18.68 18.02" style="fill:#989fac"/><polygon points="18.48 11.68 14.16 9.21 9.87 11.73 9.9 16.71 14.22 19.17 18.52 16.65 18.48 11.68" style="fill:#989fac"/><polygon points="5.85 15.83 4.71 16.49 4.72 17.8 5.86 18.45 6.99 17.79 6.99 16.48 5.85 15.83" style="fill:#989fac"/><polygon points="24.17 12.88 22.57 11.97 20.97 12.9 20.98 14.75 22.59 15.66 24.18 14.73 24.17 12.88" style="fill:#989fac"/></g></g></svg>