<svg xmlns="http://www.w3.org/2000/svg" viewBox="0 0 28.38 27.68"><g id="Calque_2" data-name="Calque 2"><g id="TEXT_AND_INFOS" data-name="TEXT AND INFOS"><path d="M14.19,0A14.19,14.19,0,0,0,9.7,27.65c.71.13,1-.3,1-.67s0-1.45,0-2.64c-3.56.65-4.49-.87-4.77-1.67a5,5,0,0,0-1.46-2c-.49-.27-1.2-.93,0-.94A2.84,2.84,0,0,1,6.6,21.18a3,3,0,0,0,4.13,1.17,3,3,0,0,1,.91-1.9c-3.16-.35-6.46-1.58-6.46-7A5.56,5.56,0,0,1,6.63,9.63a5.13,5.13,0,0,1,.15-3.76S8,5.5,10.68,7.33a13.33,13.33,0,0,1,7.09,0c2.72-1.85,3.91-1.46,3.91-1.46a5.1,5.1,0,0,1,.14,3.76,5.52,5.52,0,0,1,1.45,3.82c0,5.44-3.31,6.65-6.47,7a3.4,3.4,0,0,1,1,2.63c0,1.9,0,3.42,0,3.9s.26.82,1,.67A14.2,14.2,0,0,0,14.19,0Z" style="fill:#989fac;fill-rule:evenodd"/></g></g></svg>