<svg xmlns="http://www.w3.org/2000/svg" viewBox="0 0 28.38 28.38"><g id="Calque_2" data-name="Calque 2"><g id="TEXT_AND_INFOS" data-name="TEXT AND INFOS"><path d="M24.16,4.09A14.09,14.09,0,0,0,14.19,0H14.1A14.19,14.19,0,0,0,0,14.28a14.19,14.19,0,0,0,14.19,14.1h.09A14.19,14.19,0,0,0,28.38,14.1,14.09,14.09,0,0,0,24.16,4.09ZM14.05,12.56l4,2.32v4.19l-4-2.32-4,2.32V14.88Zm1.19,7.63,2.84,1.64v3.5a11.33,11.33,0,0,1-2.84.61ZM10,21.83l2.83-1.64v5.72A11.71,11.71,0,0,1,10,25.22Zm12.57.65a11.8,11.8,0,0,1-2.12,1.7V13.51l0,0a11.67,11.67,0,0,0-5.8-9.39l-.59-.34-.6.34a11.7,11.7,0,0,0-5.8,9.39l0,0V24A11.81,11.81,0,0,1,14.11,2.39h.08A11.8,11.8,0,0,1,26,14.12,11.64,11.64,0,0,1,22.59,22.48Z" style="fill:#989fac"/></g></g></svg>