<svg xmlns="http://www.w3.org/2000/svg" viewBox="0 0 28.38 28.38"><g id="Calque_2" data-name="Calque 2"><g id="TEXT_AND_INFOS" data-name="TEXT AND INFOS"><path d="M19.34,8.74c1-.93.62-2.13-.18-3.37l1.47-1.14-.7-.9L18.5,4.45c-.18-.24-.38-.48-.57-.71l1.45-1.13-.7-.89L17.2,2.86l-.45-.56h0l-1-1.24-.95.75s.52.65.5.65a.57.57,0,0,1,0,.82L13.67,4.59s-2.35,1.83-2.35,1.83a.4.4,0,0,1-.56-.1s-.51-.65-.51-.65L9,6.32,10,7.49l.49.64L9,9.3l.7.89L11.12,9c.19.25.37.49.56.72l-1.47,1.15.7.89,1.48-1.15c1.27,1.44,2.47,2.2,4,1.22a1.94,1.94,0,0,0,.85-2.73,1.75,1.75,0,0,0,2.11-.4ZM15.17,10c-1.11.87-2.47-1.13-2.94-1.74l2-1.54c.47.61,2.13,2.38,1,3.28Zm2.46-2.58c-1,.78-2.13-.9-2.53-1.4l1.79-1.4c.4.51,1.8,2,.74,2.8Z" style="fill:#989fac"/><g id="Layer_2" data-name="Layer 2"><g id="Layer_1-2" data-name="Layer 1-2"><path d="M18.37,15.76l3.32,0,0,3.32,1.94,0-.05-5.25-5.25,0v1.94m-3.31-1.91H17l0,1.93-1.94,0Zm2,3.28,0,3.33,3.32,0,0,1.93h0l-5.26.05,0-5.26h0l1.93,0m4.72,3.28h1.93l0,1.93-1.94,0Z" style="fill:#989fac"/><path d="M20.36,19.06h0l0-2-2,0h0l0,2,2,0h0" style="fill:#989fac"/></g></g><g id="Layer_1"><g id="_1421394342400" data-name=" 1421394342400"><polygon points="4.96 8.57 2.41 17.37 7.7 18.85 6.43 14.07 4.96 8.57" style="fill:#989fac;opacity:0.54"/><polyline points="7.93 19.71 8.92 23.45 11.78 15.8 7.93 19.71" style="fill:#989fac"/><polyline points="2.64 18.23 8.92 23.45 7.93 19.71 2.64 18.23" style="fill:#989fac;opacity:0.54"/><polyline points="7.7 18.85 11.55 14.93 6.43 14.07 7.7 18.85" style="fill:#989fac;opacity:0.54"/><polyline points="4.96 8.57 6.43 14.07 11.55 14.93 4.96 8.57" style="fill:#989fac"/><polygon points="2.41 17.37 7.7 18.85 6.43 14.07 2.41 17.37" style="fill:#989fac;opacity:0.54"/></g></g><path d="M14.19,0H14.1A14.19,14.19,0,0,0,0,14.28a14.19,14.19,0,0,0,14.19,14.1h.09A14.19,14.19,0,0,0,28.38,14.1,14.19,14.19,0,0,0,14.19,0Zm8.4,22.48A11.7,11.7,0,0,1,14.27,26,11.82,11.82,0,0,1,2.39,14.27,11.8,11.8,0,0,1,14.11,2.39h.08A11.8,11.8,0,0,1,26,14.12,11.64,11.64,0,0,1,22.59,22.48Z" style="fill:#989fac"/></g></g></svg>