<svg xmlns="http://www.w3.org/2000/svg" viewBox="0 0 28.38 28.38"><g id="Calque_2" data-name="Calque 2"><g id="TEXT_AND_INFOS" data-name="TEXT AND INFOS"><polygon points="20.01 7.65 20.01 10.03 8.37 10.03 8.37 12.42 20.01 12.42 20.01 14.8 23.74 11.23 20.01 7.65" style="fill:#989fac"/><polygon points="8.37 13.58 4.64 17.16 8.37 20.73 8.37 18.35 20.01 18.35 20.01 15.96 8.37 15.96 8.37 13.58" style="fill:#989fac"/><path d="M14.19,0H14.1A14.19,14.19,0,0,0,0,14.28a14.19,14.19,0,0,0,14.19,14.1h.09A14.19,14.19,0,0,0,28.38,14.1,14.19,14.19,0,0,0,14.19,0Zm8.4,22.48A11.7,11.7,0,0,1,14.27,26,11.82,11.82,0,0,1,2.39,14.27,11.8,11.8,0,0,1,14.11,2.39h.08A11.8,11.8,0,0,1,26,14.12,11.64,11.64,0,0,1,22.59,22.48Z" style="fill:#989fac"/></g></g></svg>