<svg xmlns="http://www.w3.org/2000/svg" xmlns:xlink="http://www.w3.org/1999/xlink" viewBox="0 0 190 190"><defs><linearGradient id="Dégradé_sans_nom_298" x1="83.85" y1="113.39" x2="44.03" y2="143.6" gradientUnits="userSpaceOnUse"><stop offset="0" stop-color="#001670"/><stop offset="1" stop-color="#001670" stop-opacity="0"/></linearGradient><linearGradient id="Dégradé_sans_nom_298-2" x1="118.53" y1="100.94" x2="168.3" y2="114.5" xlink:href="#Dégradé_sans_nom_298"/><linearGradient id="Dégradé_sans_nom_298-3" x1="-2459.97" y1="-7845.23" x2="-2410.2" y2="-7831.67" gradientTransform="translate(5652.59 -5981.38) rotate(-120)" xlink:href="#Dégradé_sans_nom_298"/></defs><g id="Calque_2" data-name="Calque 2"><g id="desin"><path d="M126.12,89.17a32,32,0,0,1,.55,5.83A31.67,31.67,0,0,1,66.8,109.4c-8-.32-15.49-3.32-22.27-8.16C26.75,88.9,17.4,70.43,10.53,51.48a95,95,0,0,0,130.55,126.6c3.91-10.53,8-21.13,8.53-31.62C150.15,126.14,144,100.9,126.12,89.17Z" style="fill:#1e1616"/><path d="M190,95a95,95,0,0,0-47.82-82.47c-8.82,5.16-18.24,9.56-27,14.19-14.63,7.91-22.14,21.72-26,37.15a31.66,31.66,0,0,1,36.94,25.3c17.83,11.73,24,37,23.49,57.29-.51,10.49-4.62,21.09-8.53,31.62A94.94,94.94,0,0,0,190,95Z" style="fill:#f3ba2f"/><path d="M44.53,101.24c6.78,4.84,14.3,7.84,22.27,8.16A31.66,31.66,0,0,1,89.18,63.87c3.9-15.43,11.41-29.24,26-37.15,8.72-4.63,18.14-9,27-14.19A95.06,95.06,0,0,0,10.53,51.48C17.4,70.43,26.75,88.9,44.53,101.24Z" style="fill:#454a75"/><line x1="95" y1="95" x2="95" y2="63.33" style="fill:none"/><line x1="95" y1="95" x2="122.42" y2="110.83" style="fill:none"/><line x1="95" y1="95" x2="67.58" y2="110.83" style="fill:none"/><path d="M67.6,110.83h0A31.66,31.66,0,0,1,95,63.34h89.57a94.65,94.65,0,0,0-42.07-50.6c-.56-.33-1.12-.64-1.68-1C87-17.89,28.32,42.8,59.06,96Z" style="fill:#f3ba2f"/><path d="M140,61.13c7.1-5.3,5.67-13.35,1.4-22l10.46-6.36L148,26.4l-10.18,6.19c-1-1.67-2.09-3.36-3.16-5L145,21.32,141.08,15l-10.46,6.35c-.86-1.36-1.71-2.7-2.51-4l0,0-5.33-8.79L116,12.62s2.94,4.64,2.81,4.62c1.56,2.58.58,4.33-.57,5.36l-11.91,7.23C106.44,30,89.6,40,89.6,40A2.64,2.64,0,0,1,86,38.89c0,.12-2.81-4.63-2.81-4.63l-8.37,3.35,5,8.29c.94,1.54,1.83,3.08,2.73,4.57L72,56.9l3.86,6.36L86.36,56.9c1,1.77,2,3.47,3,5.12L79,68.34l3.87,6.37L93.41,68.3c7.12,10.33,14.36,16.18,25,11,8.55-4.17,9.85-10.17,7.62-17.13,4.12,2.55,8.84,2.85,14-1ZM112,66c-7.9,4.81-15.22-9.27-17.85-13.59l14-8.51C110.79,48.18,120.25,61,112,66Zm18-15c-7.19,4.37-13.21-7.43-15.39-11l12.71-7.72c2.18,3.6,10.18,14.19,2.68,18.75Z" style="fill:#fff"/><path d="M95,63.32h0a31.66,31.66,0,0,1,27.42,47.5h0L77.63,188.38a94.64,94.64,0,0,0,64.88-11.1c.56-.33,1.1-.67,1.65-1,52.62-31.79,29.39-113-32.09-113Z" style="fill:#1e1616"/><g id="Layer_2" data-name="Layer 2"><g id="Layer_1-2" data-name="Layer 1-2"><path d="M123.6,131.12l17.93,4.8-4.81,17.93,10.43,2.8,7.6-28.37-28.35-7.59-2.8,10.43m-15-15.2L119,118.71l-2.79,10.43-10.43-2.79Zm5.66,20.59-4.8,17.92,17.93,4.81-2.79,10.43h0l-28.36-7.6,7.59-28.36h0l10.42,2.81m20.49,24.7L145.18,164l-2.8,10.43L132,171.64Z" style="fill:#fff"/><path d="M129.37,151.88h0l2.84-10.58-10.58-2.84h0v0l-2.84,10.57,10.58,2.84h0" style="fill:#fff"/></g></g><path d="M122.42,110.83h0a31.66,31.66,0,0,1-54.84,0h0L22.79,33.27A94.65,94.65,0,0,0,0,95c0,.64,0,1.29,0,1.93,1.23,61.47,83.12,81.94,113.86,28.69Z" style="fill:#454a75"/><path d="M95,126.67c-.85,0-1.69,0-2.52-.11-23.43,23.2-60.3,21.6-83.13,2,22.55,35.06,79.93,39.67,104.53-2.94l8.54-14.8h0A31.64,31.64,0,0,1,95,126.67Z" style="fill:url(#Dégradé_sans_nom_298)"/><g id="Layer_1"><g id="_1421394342400" data-name=" 1421394342400"><polygon points="21.45 52.46 12.48 105.77 44.49 110.88 33.78 83.73 21.45 52.46" style="fill:#fff;opacity:0.5"/><polygon points="46.43 115.8 54.81 137.04 66.36 90.21 46.43 115.8" style="fill:#fff;opacity:0.75"/><polygon points="54.81 137.04 46.43 115.8 14.42 110.7 54.81 137.04" style="fill:#fff;opacity:0.5"/><polygon points="44.49 110.88 64.4 85.3 33.78 83.73 44.49 110.88" style="fill:#fff"/><polygon points="21.45 52.46 64.4 85.3 33.78 83.73 21.45 52.46" style="fill:#fff;opacity:0.75"/><polygon points="12.48 105.77 44.49 110.88 33.78 83.73 12.48 105.77" style="fill:#fff;opacity:0.75"/></g></g><circle cx="95" cy="95" r="31.67" style="fill:#001670"/><circle cx="95" cy="95" r="28.87" style="fill:#001670"/><polygon points="85.45 89.48 85.45 100.51 95 106.03 104.55 100.51 104.55 89.48 95 83.97 85.45 89.48" style="fill:#fff"/><path d="M98.68,72.94a3.68,3.68,0,1,0-4.88,3.47L95,82.13l1.2-5.72A3.68,3.68,0,0,0,98.68,72.94Z" style="fill:#fff"/><path d="M91.32,117.06a3.68,3.68,0,1,0,4.88-3.47L95,107.87l-1.2,5.72A3.68,3.68,0,0,0,91.32,117.06Z" style="fill:#fff"/><path d="M77.73,80.78a3.68,3.68,0,1,0,.57,6l5.55,1.82-4.35-3.9A3.67,3.67,0,0,0,77.73,80.78Z" style="fill:#fff"/><path d="M112.27,109.21a3.67,3.67,0,1,0-.57-6l-5.55-1.82,4.35,3.9A3.66,3.66,0,0,0,112.27,109.21Z" style="fill:#fff"/><path d="M112.27,80.78a3.68,3.68,0,1,1-.57,6l-5.55,1.82,4.35-3.9A3.67,3.67,0,0,1,112.27,80.78Z" style="fill:#fff"/><path d="M77.73,109.21a3.67,3.67,0,1,1,.57-6l5.55-1.82-4.35,3.9A3.66,3.66,0,0,1,77.73,109.21Z" style="fill:#fff"/><path d="M67.6,110.83h0a31.63,31.63,0,0,1,0-31.66C73.46,69,41.3-12.9,142.52,12.73c-.56-.33-1.12-.64-1.68-1C87-17.89,28.32,42.8,59.06,96Z" style="fill:#f3ba2f"/><path d="M122.42,79.15c.42.74.81,1.49,1.17,2.24,31.8,8.7,48.85,41.42,43.3,71,19.09-37.06-5.61-89.05-54.82-89.05H95A31.67,31.67,0,0,1,122.42,79.15Z" style="fill:url(#Dégradé_sans_nom_298-2)"/><path d="M67.6,79.17c.42-.74.88-1.45,1.35-2.14C60.58,45.14,80.4,14,108.77,4,67.13,6,34.45,53.42,59.06,96l8.54,14.79h0C62.14,101.35,66.36,90.21,67.6,79.17Z" style="fill:url(#Dégradé_sans_nom_298-3)"/></g></g></svg>